<?xml version="1.0" encoding="utf-8" standalone="no"?>
<!DOCTYPE svg PUBLIC "-//W3C//DTD SVG 1.1//EN"
  "http://www.w3.org/Graphics/SVG/1.1/DTD/svg11.dtd">
<!-- Created with matplotlib (http://matplotlib.org/) -->
<svg height="633pt" version="1.1" viewBox="0 0 919 633" width="919pt" xmlns="http://www.w3.org/2000/svg" xmlns:xlink="http://www.w3.org/1999/xlink">
 <defs>
  <style type="text/css">
*{stroke-linecap:butt;stroke-linejoin:round;}
  </style>
 </defs>
 <g id="figure_1">
  <g id="patch_1">
   <path d="
M0 633.375
L919.702 633.375
L919.702 -1.13687e-13
L0 -1.13687e-13
z
" style="fill:#ffffff;"/>
  </g>
  <g id="axes_1">
   <g id="patch_2">
    <path d="
M75.5016 597.554
L912.502 597.554
L912.502 39.5544
L75.5016 39.5544
z
" style="fill:#ffffff;"/>
   </g>
   <g id="patch_3">
    <path clip-path="url(#p544352f1a0)" d="
M107.694 597.554
L236.463 597.554
L236.463 507.126
L107.694 507.126
z
" style="fill:#763c87;stroke:#000000;stroke-linejoin:miter;stroke-width:0.48;"/>
   </g>
   <g id="patch_4">
    <path clip-path="url(#p544352f1a0)" d="
M268.655 597.554
L397.425 597.554
L397.425 530.399
L268.655 530.399
z
" style="fill:#1fa2f4;stroke:#000000;stroke-linejoin:miter;stroke-width:0.48;"/>
   </g>
   <g id="patch_5">
    <path clip-path="url(#p544352f1a0)" d="
M429.617 597.554
L558.386 597.554
L558.386 410.792
L429.617 410.792
z
" style="fill:#0569ce;stroke:#000000;stroke-linejoin:miter;stroke-width:0.48;"/>
   </g>
   <g id="patch_6">
    <path clip-path="url(#p544352f1a0)" d="
M590.578 597.554
L719.348 597.554
L719.348 291.647
L590.578 291.647
z
" style="fill:#f48c36;stroke:#000000;stroke-linejoin:miter;stroke-width:0.48;"/>
   </g>
   <g id="patch_7">
    <path clip-path="url(#p544352f1a0)" d="
M751.54 597.554
L880.309 597.554
L880.309 186.178
L751.54 186.178
z
" style="fill:#e54028;stroke:#000000;stroke-linejoin:miter;stroke-width:0.48;"/>
   </g>
   <g id="LineCollection_1">
    <path clip-path="url(#p544352f1a0)" d="
M172.078 532.2
L172.078 482.051" style="fill:none;stroke:#000000;"/>
    <path clip-path="url(#p544352f1a0)" d="
M333.04 538.468
L333.04 522.33" style="fill:none;stroke:#000000;"/>
    <path clip-path="url(#p544352f1a0)" d="
M494.002 437.872
L494.002 383.711" style="fill:none;stroke:#000000;"/>
    <path clip-path="url(#p544352f1a0)" d="
M654.963 416.734
L654.963 166.56" style="fill:none;stroke:#000000;"/>
    <path clip-path="url(#p544352f1a0)" d="
M815.925 270.885
L815.925 101.472" style="fill:none;stroke:#000000;"/>
   </g>
   <g id="line2d_1">
    <defs>
     <path d="
M3 1.83697e-16
L-3 -1.83697e-16" id="mf6afe704e8"/>
    </defs>
    <g clip-path="url(#p544352f1a0)">
     <use x="172.078485577" xlink:href="#mf6afe704e8" y="532.200467857"/>
     <use x="333.040024038" xlink:href="#mf6afe704e8" y="538.467941191"/>
     <use x="494.0015625" xlink:href="#mf6afe704e8" y="437.872126242"/>
     <use x="654.963100962" xlink:href="#mf6afe704e8" y="416.734304237"/>
     <use x="815.924639423" xlink:href="#mf6afe704e8" y="270.884829771"/>
    </g>
   </g>
   <g id="line2d_2">
    <g clip-path="url(#p544352f1a0)">
     <use x="172.078485577" xlink:href="#mf6afe704e8" y="482.051182143"/>
     <use x="333.040024038" xlink:href="#mf6afe704e8" y="522.330208809"/>
     <use x="494.0015625" xlink:href="#mf6afe704e8" y="383.711423758"/>
     <use x="654.963100962" xlink:href="#mf6afe704e8" y="166.559995763"/>
     <use x="815.924639423" xlink:href="#mf6afe704e8" y="101.471520229"/>
    </g>
   </g>
   <g id="line2d_3">
    <path clip-path="url(#p544352f1a0)" d="
M172.078 507.126
L333.04 530.399
L494.002 410.792
L654.963 291.647
L815.925 186.178" style="fill:none;"/>
   </g>
   <g id="patch_8">
    <path d="
M75.5016 39.5544
L912.502 39.5544" style="fill:none;stroke:#000000;stroke-linecap:square;stroke-linejoin:miter;"/>
   </g>
   <g id="patch_9">
    <path d="
M75.5016 597.554
L75.5016 39.5544" style="fill:none;stroke:#000000;stroke-linecap:square;stroke-linejoin:miter;"/>
   </g>
   <g id="patch_10">
    <path d="
M912.502 597.554
L912.502 39.5544" style="fill:none;stroke:#000000;stroke-linecap:square;stroke-linejoin:miter;"/>
   </g>
   <g id="patch_11">
    <path d="
M75.5016 597.554
L912.502 597.554" style="fill:none;stroke:#000000;stroke-linecap:square;stroke-linejoin:miter;"/>
   </g>
   <g id="matplotlib.axis_1">
    <g id="xtick_1">
     <g id="line2d_4">
      <defs>
       <path d="
M0 0
L0 -4" id="md018de7690" style="stroke:#000000;stroke-width:1.6;"/>
      </defs>
      <g>
       <use style="stroke:#000000;stroke-width:1.6;" x="172.078485577" xlink:href="#md018de7690" y="597.554375"/>
      </g>
     </g>
     <g id="line2d_5">
      <defs>
       <path d="
M0 0
L0 4" id="mb6e9f458a9" style="stroke:#000000;stroke-width:1.6;"/>
      </defs>
      <g>
       <use style="stroke:#000000;stroke-width:1.6;" x="172.078485577" xlink:href="#mb6e9f458a9" y="39.554375"/>
      </g>
     </g>
     <g id="text_1">
      <!-- No Peptide -->
      <defs>
       <path d="
M27.4844 70.2188
L27.4844 54.6875
L45.5156 54.6875
L45.5156 42.1875
L27.4844 42.1875
L27.4844 19
Q27.4844 15.1875 29 13.8438
Q30.5156 12.5 35.0156 12.5
L44 12.5
L44 0
L29 0
Q18.6562 0 14.3281 4.3125
Q10.0156 8.64062 10.0156 19
L10.0156 42.1875
L1.3125 42.1875
L1.3125 54.6875
L10.0156 54.6875
L10.0156 70.2188
z
" id="BitstreamVeraSans-Bold-74"/>
       <path id="BitstreamVeraSans-Bold-20"/>
       <path d="
M25.875 7.90625
L25.875 -20.7969
L8.40625 -20.7969
L8.40625 54.6875
L25.875 54.6875
L25.875 46.6875
Q29.5 51.4688 33.8906 53.7344
Q38.2812 56 44 56
Q54.1094 56 60.5938 47.9688
Q67.0938 39.9375 67.0938 27.2969
Q67.0938 14.6562 60.5938 6.60938
Q54.1094 -1.42188 44 -1.42188
Q38.2812 -1.42188 33.8906 0.84375
Q29.5 3.125 25.875 7.90625
M37.5 43.3125
Q31.8906 43.3125 28.875 39.1875
Q25.875 35.0625 25.875 27.2969
Q25.875 19.5312 28.875 15.4062
Q31.8906 11.2812 37.5 11.2812
Q43.1094 11.2812 46.0625 15.375
Q49.0312 19.4844 49.0312 27.2969
Q49.0312 35.1094 46.0625 39.2031
Q43.1094 43.3125 37.5 43.3125" id="BitstreamVeraSans-Bold-70"/>
       <path d="
M9.1875 72.9062
L40.375 72.9062
Q54.2969 72.9062 61.7344 66.7188
Q69.1875 60.5469 69.1875 49.125
Q69.1875 37.6406 61.7344 31.4688
Q54.2969 25.2969 40.375 25.2969
L27.9844 25.2969
L27.9844 0
L9.1875 0
z

M27.9844 59.2812
L27.9844 38.9219
L38.375 38.9219
Q43.8438 38.9219 46.8281 41.5781
Q49.8125 44.2344 49.8125 49.125
Q49.8125 54 46.8281 56.6406
Q43.8438 59.2812 38.375 59.2812
z
" id="BitstreamVeraSans-Bold-50"/>
       <path d="
M62.9844 27.4844
L62.9844 22.5156
L22.125 22.5156
Q22.75 16.3594 26.5625 13.2812
Q30.375 10.2031 37.2031 10.2031
Q42.7188 10.2031 48.5 11.8438
Q54.2969 13.4844 60.4062 16.7969
L60.4062 3.32812
Q54.2031 0.984375 48 -0.21875
Q41.7969 -1.42188 35.5938 -1.42188
Q20.75 -1.42188 12.5156 6.125
Q4.29688 13.6719 4.29688 27.2969
Q4.29688 40.6719 12.375 48.3281
Q20.4531 56 34.625 56
Q47.5156 56 55.25 48.2344
Q62.9844 40.4844 62.9844 27.4844
M45.0156 33.2969
Q45.0156 38.2812 42.1094 41.3281
Q39.2031 44.3906 34.5156 44.3906
Q29.4375 44.3906 26.2656 41.5312
Q23.0938 38.6719 22.3125 33.2969
z
" id="BitstreamVeraSans-Bold-65"/>
       <path d="
M45.6094 46.6875
L45.6094 75.9844
L63.1875 75.9844
L63.1875 0
L45.6094 0
L45.6094 7.90625
Q42 3.07812 37.6406 0.828125
Q33.2969 -1.42188 27.5938 -1.42188
Q17.4844 -1.42188 10.9844 6.60938
Q4.5 14.6562 4.5 27.2969
Q4.5 39.9375 10.9844 47.9688
Q17.4844 56 27.5938 56
Q33.25 56 37.625 53.7344
Q42 51.4688 45.6094 46.6875
M34.0781 11.2812
Q39.7031 11.2812 42.6562 15.375
Q45.6094 19.4844 45.6094 27.2969
Q45.6094 35.1094 42.6562 39.2031
Q39.7031 43.3125 34.0781 43.3125
Q28.5156 43.3125 25.5625 39.2031
Q22.6094 35.1094 22.6094 27.2969
Q22.6094 19.4844 25.5625 15.375
Q28.5156 11.2812 34.0781 11.2812" id="BitstreamVeraSans-Bold-64"/>
       <path d="
M8.40625 54.6875
L25.875 54.6875
L25.875 0
L8.40625 0
z

M8.40625 75.9844
L25.875 75.9844
L25.875 61.7188
L8.40625 61.7188
z
" id="BitstreamVeraSans-Bold-69"/>
       <path d="
M9.1875 72.9062
L30.1719 72.9062
L56.6875 22.9062
L56.6875 72.9062
L74.5156 72.9062
L74.5156 0
L53.5156 0
L27 50
L27 0
L9.1875 0
z
" id="BitstreamVeraSans-Bold-4e"/>
       <path d="
M34.4219 43.5
Q28.6094 43.5 25.5625 39.3281
Q22.5156 35.1562 22.5156 27.2969
Q22.5156 19.4375 25.5625 15.25
Q28.6094 11.0781 34.4219 11.0781
Q40.1406 11.0781 43.1562 15.25
Q46.1875 19.4375 46.1875 27.2969
Q46.1875 35.1562 43.1562 39.3281
Q40.1406 43.5 34.4219 43.5
M34.4219 56
Q48.5312 56 56.4688 48.375
Q64.4062 40.7656 64.4062 27.2969
Q64.4062 13.8125 56.4688 6.1875
Q48.5312 -1.42188 34.4219 -1.42188
Q20.2656 -1.42188 12.2812 6.1875
Q4.29688 13.8125 4.29688 27.2969
Q4.29688 40.7656 12.2812 48.375
Q20.2656 56 34.4219 56" id="BitstreamVeraSans-Bold-6f"/>
      </defs>
      <g transform="translate(116.589266827 622.4315625)scale(0.18 -0.18)">
       <use xlink:href="#BitstreamVeraSans-Bold-4e"/>
       <use x="83.69140625" xlink:href="#BitstreamVeraSans-Bold-6f"/>
       <use x="152.392578125" xlink:href="#BitstreamVeraSans-Bold-20"/>
       <use x="187.20703125" xlink:href="#BitstreamVeraSans-Bold-50"/>
       <use x="260.498046875" xlink:href="#BitstreamVeraSans-Bold-65"/>
       <use x="328.3203125" xlink:href="#BitstreamVeraSans-Bold-70"/>
       <use x="399.90234375" xlink:href="#BitstreamVeraSans-Bold-74"/>
       <use x="447.705078125" xlink:href="#BitstreamVeraSans-Bold-69"/>
       <use x="481.982421875" xlink:href="#BitstreamVeraSans-Bold-64"/>
       <use x="553.564453125" xlink:href="#BitstreamVeraSans-Bold-65"/>
      </g>
     </g>
    </g>
    <g id="xtick_2">
     <g id="line2d_6">
      <g>
       <use style="stroke:#000000;stroke-width:1.6;" x="333.040024038" xlink:href="#md018de7690" y="597.554375"/>
      </g>
     </g>
     <g id="line2d_7">
      <g>
       <use style="stroke:#000000;stroke-width:1.6;" x="333.040024038" xlink:href="#mb6e9f458a9" y="39.554375"/>
      </g>
     </g>
     <g id="text_2">
      <!-- 10uM K99A -->
      <defs>
       <path d="
M9.1875 72.9062
L33.1094 72.9062
L49.7031 33.8906
L66.4062 72.9062
L90.2812 72.9062
L90.2812 0
L72.5156 0
L72.5156 53.3281
L55.7188 14.0156
L43.7969 14.0156
L27 53.3281
L27 0
L9.1875 0
z
" id="BitstreamVeraSans-Bold-4d"/>
       <path d="
M53.4219 13.2812
L24.0312 13.2812
L19.3906 0
L0.484375 0
L27.4844 72.9062
L49.9062 72.9062
L76.9062 0
L58.0156 0
z

M28.7188 26.8125
L48.6875 26.8125
L38.7188 55.8125
z
" id="BitstreamVeraSans-Bold-41"/>
       <path d="
M46 36.5312
Q46 50.2031 43.4375 55.7812
Q40.875 61.375 34.8125 61.375
Q28.7656 61.375 26.1719 55.7812
Q23.5781 50.2031 23.5781 36.5312
Q23.5781 22.7031 26.1719 17.0312
Q28.7656 11.375 34.8125 11.375
Q40.8281 11.375 43.4062 17.0312
Q46 22.7031 46 36.5312
M64.7969 36.375
Q64.7969 18.2656 56.9844 8.42188
Q49.1719 -1.42188 34.8125 -1.42188
Q20.4062 -1.42188 12.5938 8.42188
Q4.78125 18.2656 4.78125 36.375
Q4.78125 54.5469 12.5938 64.375
Q20.4062 74.2188 34.8125 74.2188
Q49.1719 74.2188 56.9844 64.375
Q64.7969 54.5469 64.7969 36.375" id="BitstreamVeraSans-Bold-30"/>
       <path d="
M7.8125 21.2969
L7.8125 54.6875
L25.3906 54.6875
L25.3906 49.2188
Q25.3906 44.7812 25.3438 38.0625
Q25.2969 31.3438 25.2969 29.1094
Q25.2969 22.5156 25.6406 19.6094
Q25.9844 16.7031 26.8125 15.375
Q27.875 13.6719 29.6094 12.7344
Q31.3438 11.8125 33.5938 11.8125
Q39.0625 11.8125 42.1875 16.0156
Q45.3125 20.2188 45.3125 27.6875
L45.3125 54.6875
L62.7969 54.6875
L62.7969 0
L45.3125 0
L45.3125 7.90625
Q41.3594 3.125 36.9375 0.84375
Q32.5156 -1.42188 27.2031 -1.42188
Q17.7188 -1.42188 12.7656 4.39062
Q7.8125 10.2031 7.8125 21.2969" id="BitstreamVeraSans-Bold-75"/>
       <path d="
M9.1875 72.9062
L27.9844 72.9062
L27.9844 46.2969
L55.0781 72.9062
L76.9062 72.9062
L41.7969 38.375
L80.5156 0
L56.9844 0
L27.9844 28.7188
L27.9844 0
L9.1875 0
z
" id="BitstreamVeraSans-Bold-4b"/>
       <path d="
M11.7188 12.9844
L28.3281 12.9844
L28.3281 60.1094
L11.2812 56.5938
L11.2812 69.3906
L28.2188 72.9062
L46.0938 72.9062
L46.0938 12.9844
L62.7031 12.9844
L62.7031 0
L11.7188 0
z
" id="BitstreamVeraSans-Bold-31"/>
       <path d="
M10.0156 1.60938
L10.0156 15.0938
Q14.5 12.9844 18.5938 11.9375
Q22.7031 10.8906 26.7031 10.8906
Q35.1094 10.8906 39.7969 15.5469
Q44.4844 20.2188 45.3125 29.3906
Q42 26.9531 38.2344 25.7344
Q34.4688 24.5156 30.0781 24.5156
Q18.8906 24.5156 12.0312 31.0312
Q5.17188 37.5469 5.17188 48.1875
Q5.17188 59.9688 12.8125 67.0469
Q20.4531 74.125 33.2969 74.125
Q47.5625 74.125 55.375 64.5
Q63.1875 54.8906 63.1875 37.3125
Q63.1875 19.2344 54.0469 8.90625
Q44.9219 -1.42188 29 -1.42188
Q23.875 -1.42188 19.1875 -0.65625
Q14.5 0.09375 10.0156 1.60938
M33.2031 36.7188
Q38.1406 36.7188 40.625 39.9062
Q43.1094 43.1094 43.1094 49.5156
Q43.1094 55.8594 40.625 59.0781
Q38.1406 62.3125 33.2031 62.3125
Q28.2656 62.3125 25.7812 59.0781
Q23.2969 55.8594 23.2969 49.5156
Q23.2969 43.1094 25.7812 39.9062
Q28.2656 36.7188 33.2031 36.7188" id="BitstreamVeraSans-Bold-39"/>
      </defs>
      <g transform="translate(275.600336538 622.4315625)scale(0.18 -0.18)">
       <use xlink:href="#BitstreamVeraSans-Bold-31"/>
       <use x="69.580078125" xlink:href="#BitstreamVeraSans-Bold-30"/>
       <use x="139.16015625" xlink:href="#BitstreamVeraSans-Bold-75"/>
       <use x="210.3515625" xlink:href="#BitstreamVeraSans-Bold-4d"/>
       <use x="309.86328125" xlink:href="#BitstreamVeraSans-Bold-20"/>
       <use x="344.677734375" xlink:href="#BitstreamVeraSans-Bold-4b"/>
       <use x="422.16796875" xlink:href="#BitstreamVeraSans-Bold-39"/>
       <use x="491.748046875" xlink:href="#BitstreamVeraSans-Bold-39"/>
       <use x="561.328125" xlink:href="#BitstreamVeraSans-Bold-41"/>
      </g>
     </g>
    </g>
    <g id="xtick_3">
     <g id="line2d_8">
      <g>
       <use style="stroke:#000000;stroke-width:1.6;" x="494.0015625" xlink:href="#md018de7690" y="597.554375"/>
      </g>
     </g>
     <g id="line2d_9">
      <g>
       <use style="stroke:#000000;stroke-width:1.6;" x="494.0015625" xlink:href="#mb6e9f458a9" y="39.554375"/>
      </g>
     </g>
     <g id="text_3">
      <!-- 100uM K99A -->
      <g transform="translate(430.29984375 622.4315625)scale(0.18 -0.18)">
       <use xlink:href="#BitstreamVeraSans-Bold-31"/>
       <use x="69.580078125" xlink:href="#BitstreamVeraSans-Bold-30"/>
       <use x="139.16015625" xlink:href="#BitstreamVeraSans-Bold-30"/>
       <use x="208.740234375" xlink:href="#BitstreamVeraSans-Bold-75"/>
       <use x="279.931640625" xlink:href="#BitstreamVeraSans-Bold-4d"/>
       <use x="379.443359375" xlink:href="#BitstreamVeraSans-Bold-20"/>
       <use x="414.2578125" xlink:href="#BitstreamVeraSans-Bold-4b"/>
       <use x="491.748046875" xlink:href="#BitstreamVeraSans-Bold-39"/>
       <use x="561.328125" xlink:href="#BitstreamVeraSans-Bold-39"/>
       <use x="630.908203125" xlink:href="#BitstreamVeraSans-Bold-41"/>
      </g>
     </g>
    </g>
    <g id="xtick_4">
     <g id="line2d_10">
      <g>
       <use style="stroke:#000000;stroke-width:1.6;" x="654.963100962" xlink:href="#md018de7690" y="597.554375"/>
      </g>
     </g>
     <g id="line2d_11">
      <g>
       <use style="stroke:#000000;stroke-width:1.6;" x="654.963100962" xlink:href="#mb6e9f458a9" y="39.554375"/>
      </g>
     </g>
     <g id="text_4">
      <!-- 0.1uM PCC -->
      <defs>
       <path d="
M67 4
Q61.8125 1.3125 56.2031 -0.046875
Q50.5938 -1.42188 44.4844 -1.42188
Q26.2656 -1.42188 15.625 8.76562
Q4.98438 18.9531 4.98438 36.375
Q4.98438 53.8594 15.625 64.0312
Q26.2656 74.2188 44.4844 74.2188
Q50.5938 74.2188 56.2031 72.8438
Q61.8125 71.4844 67 68.7969
L67 53.7188
Q61.7656 57.2812 56.6875 58.9375
Q51.6094 60.5938 46 60.5938
Q35.9375 60.5938 30.1719 54.1406
Q24.4219 47.7031 24.4219 36.375
Q24.4219 25.0938 30.1719 18.6406
Q35.9375 12.2031 46 12.2031
Q51.6094 12.2031 56.6875 13.8594
Q61.7656 15.5312 67 19.0938
z
" id="BitstreamVeraSans-Bold-43"/>
       <path d="
M10.2031 18.8906
L27.7812 18.8906
L27.7812 0
L10.2031 0
z
" id="BitstreamVeraSans-Bold-2e"/>
      </defs>
      <g transform="translate(601.292163462 622.4315625)scale(0.18 -0.18)">
       <use xlink:href="#BitstreamVeraSans-Bold-30"/>
       <use x="69.580078125" xlink:href="#BitstreamVeraSans-Bold-2e"/>
       <use x="107.568359375" xlink:href="#BitstreamVeraSans-Bold-31"/>
       <use x="177.1484375" xlink:href="#BitstreamVeraSans-Bold-75"/>
       <use x="248.33984375" xlink:href="#BitstreamVeraSans-Bold-4d"/>
       <use x="347.8515625" xlink:href="#BitstreamVeraSans-Bold-20"/>
       <use x="382.666015625" xlink:href="#BitstreamVeraSans-Bold-50"/>
       <use x="455.95703125" xlink:href="#BitstreamVeraSans-Bold-43"/>
       <use x="529.345703125" xlink:href="#BitstreamVeraSans-Bold-43"/>
      </g>
     </g>
    </g>
    <g id="xtick_5">
     <g id="line2d_12">
      <g>
       <use style="stroke:#000000;stroke-width:1.6;" x="815.924639423" xlink:href="#md018de7690" y="597.554375"/>
      </g>
     </g>
     <g id="line2d_13">
      <g>
       <use style="stroke:#000000;stroke-width:1.6;" x="815.924639423" xlink:href="#mb6e9f458a9" y="39.554375"/>
      </g>
     </g>
     <g id="text_5">
      <!-- 10uM PCC -->
      <g transform="translate(765.672295673 622.4315625)scale(0.18 -0.18)">
       <use xlink:href="#BitstreamVeraSans-Bold-31"/>
       <use x="69.580078125" xlink:href="#BitstreamVeraSans-Bold-30"/>
       <use x="139.16015625" xlink:href="#BitstreamVeraSans-Bold-75"/>
       <use x="210.3515625" xlink:href="#BitstreamVeraSans-Bold-4d"/>
       <use x="309.86328125" xlink:href="#BitstreamVeraSans-Bold-20"/>
       <use x="344.677734375" xlink:href="#BitstreamVeraSans-Bold-50"/>
       <use x="417.96875" xlink:href="#BitstreamVeraSans-Bold-43"/>
       <use x="491.357421875" xlink:href="#BitstreamVeraSans-Bold-43"/>
      </g>
     </g>
    </g>
   </g>
   <g id="matplotlib.axis_2">
    <g id="ytick_1">
     <g id="line2d_14">
      <defs>
       <path d="
M0 0
L4 0" id="med74821ad8" style="stroke:#000000;stroke-width:1.6;"/>
      </defs>
      <g>
       <use style="stroke:#000000;stroke-width:1.6;" x="75.5015625" xlink:href="#med74821ad8" y="597.554375"/>
      </g>
     </g>
     <g id="line2d_15">
      <defs>
       <path d="
M0 0
L-4 0" id="mc83d8c5c1e" style="stroke:#000000;stroke-width:1.6;"/>
      </defs>
      <g>
       <use style="stroke:#000000;stroke-width:1.6;" x="912.5015625" xlink:href="#mc83d8c5c1e" y="597.554375"/>
      </g>
     </g>
     <g id="text_6">
      <!-- 0 -->
      <g transform="translate(53.49875 602.52125)scale(0.18 -0.18)">
       <use xlink:href="#BitstreamVeraSans-Bold-30"/>
      </g>
     </g>
    </g>
    <g id="ytick_2">
     <g id="line2d_16">
      <g>
       <use style="stroke:#000000;stroke-width:1.6;" x="75.5015625" xlink:href="#med74821ad8" y="504.554375"/>
      </g>
     </g>
     <g id="line2d_17">
      <g>
       <use style="stroke:#000000;stroke-width:1.6;" x="912.5015625" xlink:href="#mc83d8c5c1e" y="504.554375"/>
      </g>
     </g>
     <g id="text_7">
      <!-- 20 -->
      <defs>
       <path d="
M28.8125 13.8125
L60.8906 13.8125
L60.8906 0
L7.90625 0
L7.90625 13.8125
L34.5156 37.3125
Q38.0938 40.5312 39.7969 43.6094
Q41.5 46.6875 41.5 50
Q41.5 55.125 38.0625 58.25
Q34.625 61.375 28.9062 61.375
Q24.5156 61.375 19.2812 59.5
Q14.0625 57.625 8.10938 53.9062
L8.10938 69.9219
Q14.4531 72.0156 20.6562 73.1094
Q26.8594 74.2188 32.8125 74.2188
Q45.9062 74.2188 53.1562 68.4531
Q60.4062 62.7031 60.4062 52.3906
Q60.4062 46.4375 57.3281 41.2812
Q54.25 36.1406 44.3906 27.4844
z
" id="BitstreamVeraSans-Bold-32"/>
      </defs>
      <g transform="translate(41.5371875 509.52125)scale(0.18 -0.18)">
       <use xlink:href="#BitstreamVeraSans-Bold-32"/>
       <use x="69.580078125" xlink:href="#BitstreamVeraSans-Bold-30"/>
      </g>
     </g>
    </g>
    <g id="ytick_3">
     <g id="line2d_18">
      <g>
       <use style="stroke:#000000;stroke-width:1.6;" x="75.5015625" xlink:href="#med74821ad8" y="411.554375"/>
      </g>
     </g>
     <g id="line2d_19">
      <g>
       <use style="stroke:#000000;stroke-width:1.6;" x="912.5015625" xlink:href="#mc83d8c5c1e" y="411.554375"/>
      </g>
     </g>
     <g id="text_8">
      <!-- 40 -->
      <defs>
       <path d="
M36.8125 57.4219
L16.2188 26.9062
L36.8125 26.9062
z

M33.6875 72.9062
L54.5938 72.9062
L54.5938 26.9062
L64.9844 26.9062
L64.9844 13.2812
L54.5938 13.2812
L54.5938 0
L36.8125 0
L36.8125 13.2812
L4.5 13.2812
L4.5 29.3906
z
" id="BitstreamVeraSans-Bold-34"/>
      </defs>
      <g transform="translate(40.9240625 416.52125)scale(0.18 -0.18)">
       <use xlink:href="#BitstreamVeraSans-Bold-34"/>
       <use x="69.580078125" xlink:href="#BitstreamVeraSans-Bold-30"/>
      </g>
     </g>
    </g>
    <g id="ytick_4">
     <g id="line2d_20">
      <g>
       <use style="stroke:#000000;stroke-width:1.6;" x="75.5015625" xlink:href="#med74821ad8" y="318.554375"/>
      </g>
     </g>
     <g id="line2d_21">
      <g>
       <use style="stroke:#000000;stroke-width:1.6;" x="912.5015625" xlink:href="#mc83d8c5c1e" y="318.554375"/>
      </g>
     </g>
     <g id="text_9">
      <!-- 60 -->
      <defs>
       <path d="
M36.1875 35.9844
Q31.25 35.9844 28.7812 32.7812
Q26.3125 29.5938 26.3125 23.1875
Q26.3125 16.7969 28.7812 13.5938
Q31.25 10.4062 36.1875 10.4062
Q41.1562 10.4062 43.625 13.5938
Q46.0938 16.7969 46.0938 23.1875
Q46.0938 29.5938 43.625 32.7812
Q41.1562 35.9844 36.1875 35.9844
M59.4219 71
L59.4219 57.5156
Q54.7812 59.7188 50.6719 60.7656
Q46.5781 61.8125 42.6719 61.8125
Q34.2812 61.8125 29.5938 57.1406
Q24.9062 52.4844 24.125 43.3125
Q27.3438 45.7031 31.0938 46.8906
Q34.8594 48.0938 39.3125 48.0938
Q50.4844 48.0938 57.3438 41.5469
Q64.2031 35.0156 64.2031 24.4219
Q64.2031 12.7031 56.5312 5.64062
Q48.875 -1.42188 35.9844 -1.42188
Q21.7812 -1.42188 13.9844 8.17188
Q6.20312 17.7812 6.20312 35.4062
Q6.20312 53.4688 15.3125 63.7969
Q24.4219 74.125 40.2812 74.125
Q45.3125 74.125 50.0469 73.3438
Q54.7812 72.5625 59.4219 71" id="BitstreamVeraSans-Bold-36"/>
      </defs>
      <g transform="translate(41.230625 323.52125)scale(0.18 -0.18)">
       <use xlink:href="#BitstreamVeraSans-Bold-36"/>
       <use x="69.580078125" xlink:href="#BitstreamVeraSans-Bold-30"/>
      </g>
     </g>
    </g>
    <g id="ytick_5">
     <g id="line2d_22">
      <g>
       <use style="stroke:#000000;stroke-width:1.6;" x="75.5015625" xlink:href="#med74821ad8" y="225.554375"/>
      </g>
     </g>
     <g id="line2d_23">
      <g>
       <use style="stroke:#000000;stroke-width:1.6;" x="912.5015625" xlink:href="#mc83d8c5c1e" y="225.554375"/>
      </g>
     </g>
     <g id="text_10">
      <!-- 80 -->
      <defs>
       <path d="
M34.8125 32.625
Q29.5469 32.625 26.7031 29.7344
Q23.875 26.8594 23.875 21.4844
Q23.875 16.1094 26.7031 13.25
Q29.5469 10.4062 34.8125 10.4062
Q40.0469 10.4062 42.8281 13.25
Q45.6094 16.1094 45.6094 21.4844
Q45.6094 26.9062 42.8281 29.7656
Q40.0469 32.625 34.8125 32.625
M21.0938 38.8125
Q14.4531 40.8281 11.0781 44.9688
Q7.71875 49.125 7.71875 55.3281
Q7.71875 64.5469 14.5938 69.375
Q21.4844 74.2188 34.8125 74.2188
Q48.0469 74.2188 54.9219 69.4062
Q61.8125 64.5938 61.8125 55.3281
Q61.8125 49.125 58.4219 44.9688
Q55.0312 40.8281 48.3906 38.8125
Q55.8125 36.7656 59.5938 32.1562
Q63.375 27.5469 63.375 20.5156
Q63.375 9.67188 56.1719 4.125
Q48.9688 -1.42188 34.8125 -1.42188
Q20.6094 -1.42188 13.3594 4.125
Q6.10938 9.67188 6.10938 20.5156
Q6.10938 27.5469 9.89062 32.1562
Q13.6719 36.7656 21.0938 38.8125
M25.4844 53.4219
Q25.4844 49.0781 27.9062 46.7344
Q30.3281 44.3906 34.8125 44.3906
Q39.2031 44.3906 41.5938 46.7344
Q44 49.0781 44 53.4219
Q44 57.7656 41.5938 60.0781
Q39.2031 62.4062 34.8125 62.4062
Q30.3281 62.4062 27.9062 60.0625
Q25.4844 57.7188 25.4844 53.4219" id="BitstreamVeraSans-Bold-38"/>
      </defs>
      <g transform="translate(41.21375 230.52125)scale(0.18 -0.18)">
       <use xlink:href="#BitstreamVeraSans-Bold-38"/>
       <use x="69.580078125" xlink:href="#BitstreamVeraSans-Bold-30"/>
      </g>
     </g>
    </g>
    <g id="ytick_6">
     <g id="line2d_24">
      <g>
       <use style="stroke:#000000;stroke-width:1.6;" x="75.5015625" xlink:href="#med74821ad8" y="132.554375"/>
      </g>
     </g>
     <g id="line2d_25">
      <g>
       <use style="stroke:#000000;stroke-width:1.6;" x="912.5015625" xlink:href="#mc83d8c5c1e" y="132.554375"/>
      </g>
     </g>
     <g id="text_11">
      <!-- 100 -->
      <g transform="translate(29.620625 137.52125)scale(0.18 -0.18)">
       <use xlink:href="#BitstreamVeraSans-Bold-31"/>
       <use x="69.580078125" xlink:href="#BitstreamVeraSans-Bold-30"/>
       <use x="139.16015625" xlink:href="#BitstreamVeraSans-Bold-30"/>
      </g>
     </g>
    </g>
    <g id="ytick_7">
     <g id="line2d_26">
      <g>
       <use style="stroke:#000000;stroke-width:1.6;" x="75.5015625" xlink:href="#med74821ad8" y="39.554375"/>
      </g>
     </g>
     <g id="line2d_27">
      <g>
       <use style="stroke:#000000;stroke-width:1.6;" x="912.5015625" xlink:href="#mc83d8c5c1e" y="39.554375"/>
      </g>
     </g>
     <g id="text_12">
      <!-- 120 -->
      <g transform="translate(29.620625 44.52125)scale(0.18 -0.18)">
       <use xlink:href="#BitstreamVeraSans-Bold-31"/>
       <use x="69.580078125" xlink:href="#BitstreamVeraSans-Bold-32"/>
       <use x="139.16015625" xlink:href="#BitstreamVeraSans-Bold-30"/>
      </g>
     </g>
    </g>
    <g id="text_13">
     <!-- RPKM -->
     <defs>
      <path d="
M35.8906 40.5781
Q41.7969 40.5781 44.3594 42.7656
Q46.9219 44.9688 46.9219 50
Q46.9219 54.9844 44.3594 57.125
Q41.7969 59.2812 35.8906 59.2812
L27.9844 59.2812
L27.9844 40.5781
z

M27.9844 27.5938
L27.9844 0
L9.1875 0
L9.1875 72.9062
L37.8906 72.9062
Q52.2969 72.9062 59 68.0625
Q65.7188 63.2344 65.7188 52.7812
Q65.7188 45.5625 62.2188 40.9219
Q58.7344 36.2812 51.7031 34.0781
Q55.5625 33.2031 58.6094 30.0938
Q61.6719 27 64.7969 20.7031
L75 0
L54.9844 0
L46.0938 18.1094
Q43.4062 23.5781 40.6406 25.5781
Q37.8906 27.5938 33.2969 27.5938
z
" id="BitstreamVeraSans-Bold-52"/>
     </defs>
     <g transform="translate(20.8771875 346.353125)rotate(-90.0)scale(0.18 -0.18)">
      <use xlink:href="#BitstreamVeraSans-Bold-52"/>
      <use x="77.001953125" xlink:href="#BitstreamVeraSans-Bold-50"/>
      <use x="150.29296875" xlink:href="#BitstreamVeraSans-Bold-4b"/>
      <use x="227.783203125" xlink:href="#BitstreamVeraSans-Bold-4d"/>
     </g>
    </g>
   </g>
   <g id="text_14">
    <!-- Tnf Expression -->
    <defs>
     <path d="
M30.6094 48.3906
Q23.3906 48.3906 19.1875 42.75
Q14.9844 37.1094 14.9844 27.2969
Q14.9844 17.4844 19.1562 11.8438
Q23.3438 6.20312 30.6094 6.20312
Q37.7969 6.20312 41.9844 11.8594
Q46.1875 17.5312 46.1875 27.2969
Q46.1875 37.0156 41.9844 42.7031
Q37.7969 48.3906 30.6094 48.3906
M30.6094 56
Q42.3281 56 49.0156 48.375
Q55.7188 40.7656 55.7188 27.2969
Q55.7188 13.875 49.0156 6.21875
Q42.3281 -1.42188 30.6094 -1.42188
Q18.8438 -1.42188 12.1719 6.21875
Q5.51562 13.875 5.51562 27.2969
Q5.51562 40.7656 12.1719 48.375
Q18.8438 56 30.6094 56" id="BitstreamVeraSans-Roman-6f"/>
     <path d="
M9.42188 54.6875
L18.4062 54.6875
L18.4062 0
L9.42188 0
z

M9.42188 75.9844
L18.4062 75.9844
L18.4062 64.5938
L9.42188 64.5938
z
" id="BitstreamVeraSans-Roman-69"/>
     <path d="
M41.1094 46.2969
Q39.5938 47.1719 37.8125 47.5781
Q36.0312 48 33.8906 48
Q26.2656 48 22.1875 43.0469
Q18.1094 38.0938 18.1094 28.8125
L18.1094 0
L9.07812 0
L9.07812 54.6875
L18.1094 54.6875
L18.1094 46.1875
Q20.9531 51.1719 25.4844 53.5781
Q30.0312 56 36.5312 56
Q37.4531 56 38.5781 55.875
Q39.7031 55.7656 41.0625 55.5156
z
" id="BitstreamVeraSans-Roman-72"/>
     <path d="
M56.2031 29.5938
L56.2031 25.2031
L14.8906 25.2031
Q15.4844 15.9219 20.4844 11.0625
Q25.4844 6.20312 34.4219 6.20312
Q39.5938 6.20312 44.4531 7.46875
Q49.3125 8.73438 54.1094 11.2812
L54.1094 2.78125
Q49.2656 0.734375 44.1875 -0.34375
Q39.1094 -1.42188 33.8906 -1.42188
Q20.7969 -1.42188 13.1562 6.1875
Q5.51562 13.8125 5.51562 26.8125
Q5.51562 40.2344 12.7656 48.1094
Q20.0156 56 32.3281 56
Q43.3594 56 49.7812 48.8906
Q56.2031 41.7969 56.2031 29.5938
M47.2188 32.2344
Q47.125 39.5938 43.0938 43.9844
Q39.0625 48.3906 32.4219 48.3906
Q24.9062 48.3906 20.3906 44.1406
Q15.875 39.8906 15.1875 32.1719
z
" id="BitstreamVeraSans-Roman-65"/>
     <path d="
M-0.296875 72.9062
L61.375 72.9062
L61.375 64.5938
L35.5 64.5938
L35.5 0
L25.5938 0
L25.5938 64.5938
L-0.296875 64.5938
z
" id="BitstreamVeraSans-Roman-54"/>
     <path d="
M54.8906 54.6875
L35.1094 28.0781
L55.9062 0
L45.3125 0
L29.3906 21.4844
L13.4844 0
L2.875 0
L24.125 28.6094
L4.6875 54.6875
L15.2812 54.6875
L29.7812 35.2031
L44.2812 54.6875
z
" id="BitstreamVeraSans-Roman-78"/>
     <path d="
M18.1094 8.20312
L18.1094 -20.7969
L9.07812 -20.7969
L9.07812 54.6875
L18.1094 54.6875
L18.1094 46.3906
Q20.9531 51.2656 25.2656 53.625
Q29.5938 56 35.5938 56
Q45.5625 56 51.7812 48.0938
Q58.0156 40.1875 58.0156 27.2969
Q58.0156 14.4062 51.7812 6.48438
Q45.5625 -1.42188 35.5938 -1.42188
Q29.5938 -1.42188 25.2656 0.953125
Q20.9531 3.32812 18.1094 8.20312
M48.6875 27.2969
Q48.6875 37.2031 44.6094 42.8438
Q40.5312 48.4844 33.4062 48.4844
Q26.2656 48.4844 22.1875 42.8438
Q18.1094 37.2031 18.1094 27.2969
Q18.1094 17.3906 22.1875 11.75
Q26.2656 6.10938 33.4062 6.10938
Q40.5312 6.10938 44.6094 11.75
Q48.6875 17.3906 48.6875 27.2969" id="BitstreamVeraSans-Roman-70"/>
     <path d="
M44.2812 53.0781
L44.2812 44.5781
Q40.4844 46.5312 36.375 47.5
Q32.2812 48.4844 27.875 48.4844
Q21.1875 48.4844 17.8438 46.4375
Q14.5 44.3906 14.5 40.2812
Q14.5 37.1562 16.8906 35.375
Q19.2812 33.5938 26.5156 31.9844
L29.5938 31.2969
Q39.1562 29.25 43.1875 25.5156
Q47.2188 21.7812 47.2188 15.0938
Q47.2188 7.46875 41.1875 3.01562
Q35.1562 -1.42188 24.6094 -1.42188
Q20.2188 -1.42188 15.4531 -0.5625
Q10.6875 0.296875 5.42188 2
L5.42188 11.2812
Q10.4062 8.6875 15.2344 7.39062
Q20.0625 6.10938 24.8125 6.10938
Q31.1562 6.10938 34.5625 8.28125
Q37.9844 10.4531 37.9844 14.4062
Q37.9844 18.0625 35.5156 20.0156
Q33.0625 21.9688 24.7031 23.7812
L21.5781 24.5156
Q13.2344 26.2656 9.51562 29.9062
Q5.8125 33.5469 5.8125 39.8906
Q5.8125 47.6094 11.2812 51.7969
Q16.75 56 26.8125 56
Q31.7812 56 36.1719 55.2656
Q40.5781 54.5469 44.2812 53.0781" id="BitstreamVeraSans-Roman-73"/>
     <path id="BitstreamVeraSans-Roman-20"/>
     <path d="
M37.1094 75.9844
L37.1094 68.5
L28.5156 68.5
Q23.6875 68.5 21.7969 66.5469
Q19.9219 64.5938 19.9219 59.5156
L19.9219 54.6875
L34.7188 54.6875
L34.7188 47.7031
L19.9219 47.7031
L19.9219 0
L10.8906 0
L10.8906 47.7031
L2.29688 47.7031
L2.29688 54.6875
L10.8906 54.6875
L10.8906 58.5
Q10.8906 67.625 15.1406 71.7969
Q19.3906 75.9844 28.6094 75.9844
z
" id="BitstreamVeraSans-Roman-66"/>
     <path d="
M54.8906 33.0156
L54.8906 0
L45.9062 0
L45.9062 32.7188
Q45.9062 40.4844 42.875 44.3281
Q39.8438 48.1875 33.7969 48.1875
Q26.5156 48.1875 22.3125 43.5469
Q18.1094 38.9219 18.1094 30.9062
L18.1094 0
L9.07812 0
L9.07812 54.6875
L18.1094 54.6875
L18.1094 46.1875
Q21.3438 51.125 25.7031 53.5625
Q30.0781 56 35.7969 56
Q45.2188 56 50.0469 50.1719
Q54.8906 44.3438 54.8906 33.0156" id="BitstreamVeraSans-Roman-6e"/>
     <path d="
M9.8125 72.9062
L55.9062 72.9062
L55.9062 64.5938
L19.6719 64.5938
L19.6719 43.0156
L54.3906 43.0156
L54.3906 34.7188
L19.6719 34.7188
L19.6719 8.29688
L56.7812 8.29688
L56.7812 0
L9.8125 0
z
" id="BitstreamVeraSans-Roman-45"/>
    </defs>
    <g transform="translate(363.3159375 34.554375)scale(0.36 -0.36)">
     <use xlink:href="#BitstreamVeraSans-Roman-54"/>
     <use x="61.083984375" xlink:href="#BitstreamVeraSans-Roman-6e"/>
     <use x="124.462890625" xlink:href="#BitstreamVeraSans-Roman-66"/>
     <use x="159.66796875" xlink:href="#BitstreamVeraSans-Roman-20"/>
     <use x="191.455078125" xlink:href="#BitstreamVeraSans-Roman-45"/>
     <use x="254.638671875" xlink:href="#BitstreamVeraSans-Roman-78"/>
     <use x="313.818359375" xlink:href="#BitstreamVeraSans-Roman-70"/>
     <use x="377.294921875" xlink:href="#BitstreamVeraSans-Roman-72"/>
     <use x="416.158203125" xlink:href="#BitstreamVeraSans-Roman-65"/>
     <use x="477.681640625" xlink:href="#BitstreamVeraSans-Roman-73"/>
     <use x="529.78125" xlink:href="#BitstreamVeraSans-Roman-73"/>
     <use x="581.880859375" xlink:href="#BitstreamVeraSans-Roman-69"/>
     <use x="609.6640625" xlink:href="#BitstreamVeraSans-Roman-6f"/>
     <use x="670.845703125" xlink:href="#BitstreamVeraSans-Roman-6e"/>
    </g>
   </g>
  </g>
 </g>
 <defs>
  <clipPath id="p544352f1a0">
   <rect height="558.0" width="837.0" x="75.5015625" y="39.554375"/>
  </clipPath>
 </defs>
</svg>
